<mxfile host="65bd71144e">
    <diagram id="l8w3p-45Hr7946U58_L5" name="ページ1">
        <mxGraphModel dx="2026" dy="1092" grid="1" gridSize="10" guides="1" tooltips="1" connect="1" arrows="1" fold="1" page="1" pageScale="1" pageWidth="827" pageHeight="1169" math="0" shadow="0">
            <root>
                <mxCell id="0"/>
                <mxCell id="1" parent="0"/>
                <mxCell id="7" value="" style="group" parent="1" vertex="1" connectable="0">
                    <mxGeometry x="233.5" y="420" width="360" height="240" as="geometry"/>
                </mxCell>
                <mxCell id="2" value="パケット" style="rounded=0;whiteSpace=wrap;html=1;align=center;verticalAlign=top;" parent="7" vertex="1">
                    <mxGeometry width="360" height="240" as="geometry"/>
                </mxCell>
                <mxCell id="3" value="データ本体" style="ellipse;whiteSpace=wrap;html=1;aspect=fixed;" parent="7" vertex="1">
                    <mxGeometry x="16.363636363636363" y="34.285714285714285" width="65.45454545454545" height="65.45454545454545" as="geometry"/>
                </mxCell>
                <mxCell id="4" value="HTTPヘッダー" style="ellipse;whiteSpace=wrap;html=1;aspect=fixed;" parent="7" vertex="1">
                    <mxGeometry x="106.36363636363637" y="34.285714285714285" width="65.45454545454545" height="65.45454545454545" as="geometry"/>
                </mxCell>
                <mxCell id="5" value="TCPヘッダー" style="ellipse;whiteSpace=wrap;html=1;aspect=fixed;" parent="7" vertex="1">
                    <mxGeometry x="196.36363636363637" y="34.285714285714285" width="65.45454545454545" height="65.45454545454545" as="geometry"/>
                </mxCell>
                <mxCell id="6" value="IPヘッダー" style="ellipse;whiteSpace=wrap;html=1;aspect=fixed;" parent="7" vertex="1">
                    <mxGeometry x="57.27272727272727" y="120" width="65.45454545454545" height="65.45454545454545" as="geometry"/>
                </mxCell>
                <mxCell id="8" value="ルーター" style="rounded=0;whiteSpace=wrap;html=1;" parent="1" vertex="1">
                    <mxGeometry x="90" y="300" width="120" height="60" as="geometry"/>
                </mxCell>
                <mxCell id="9" value="L3スイッチ" style="rounded=0;whiteSpace=wrap;html=1;" parent="1" vertex="1">
                    <mxGeometry x="90" y="390" width="120" height="60" as="geometry"/>
                </mxCell>
                <mxCell id="11" value="" style="shape=flexArrow;endArrow=classic;html=1;" parent="1" edge="1">
                    <mxGeometry width="50" height="50" relative="1" as="geometry">
                        <mxPoint x="379" y="380" as="sourcePoint"/>
                        <mxPoint x="449" y="380" as="targetPoint"/>
                    </mxGeometry>
                </mxCell>
                <mxCell id="12" value="ルーター" style="rounded=0;whiteSpace=wrap;html=1;" parent="1" vertex="1">
                    <mxGeometry x="620" y="300" width="120" height="60" as="geometry"/>
                </mxCell>
                <mxCell id="13" value="L3スイッチ" style="rounded=0;whiteSpace=wrap;html=1;" parent="1" vertex="1">
                    <mxGeometry x="620" y="390" width="120" height="60" as="geometry"/>
                </mxCell>
                <mxCell id="14" value="" style="group" parent="1" vertex="1" connectable="0">
                    <mxGeometry x="780" y="450" width="360" height="240" as="geometry"/>
                </mxCell>
                <mxCell id="15" value="パケット" style="rounded=0;whiteSpace=wrap;html=1;align=center;verticalAlign=top;" parent="14" vertex="1">
                    <mxGeometry width="360" height="240" as="geometry"/>
                </mxCell>
                <mxCell id="16" value="データ本体" style="ellipse;whiteSpace=wrap;html=1;aspect=fixed;" parent="14" vertex="1">
                    <mxGeometry x="16.363636363636363" y="34.285714285714285" width="65.45454545454545" height="65.45454545454545" as="geometry"/>
                </mxCell>
                <mxCell id="17" value="HTTPヘッダー" style="ellipse;whiteSpace=wrap;html=1;aspect=fixed;" parent="14" vertex="1">
                    <mxGeometry x="106.36363636363637" y="34.285714285714285" width="65.45454545454545" height="65.45454545454545" as="geometry"/>
                </mxCell>
                <mxCell id="18" value="TCPヘッダー" style="ellipse;whiteSpace=wrap;html=1;aspect=fixed;" parent="14" vertex="1">
                    <mxGeometry x="196.36363636363637" y="34.285714285714285" width="65.45454545454545" height="65.45454545454545" as="geometry"/>
                </mxCell>
                <mxCell id="19" value="IPヘッダー" style="ellipse;whiteSpace=wrap;html=1;aspect=fixed;" parent="14" vertex="1">
                    <mxGeometry x="57.27272727272727" y="120" width="65.45454545454545" height="65.45454545454545" as="geometry"/>
                </mxCell>
                <mxCell id="20" value="" style="shape=flexArrow;endArrow=classic;html=1;" parent="1" edge="1">
                    <mxGeometry width="50" height="50" relative="1" as="geometry">
                        <mxPoint x="925.5" y="410" as="sourcePoint"/>
                        <mxPoint x="995.5" y="410" as="targetPoint"/>
                    </mxGeometry>
                </mxCell>
                <mxCell id="21" value="宛先" style="shape=umlActor;verticalLabelPosition=bottom;verticalAlign=top;html=1;outlineConnect=0;" parent="1" vertex="1">
                    <mxGeometry x="1250" y="330" width="30" height="60" as="geometry"/>
                </mxCell>
                <mxCell id="23" style="edgeStyle=none;html=1;" parent="1" source="22" edge="1">
                    <mxGeometry relative="1" as="geometry">
                        <mxPoint x="1240" y="400" as="targetPoint"/>
                    </mxGeometry>
                </mxCell>
                <mxCell id="22" value="この宛先情報がIPアドレス" style="text;html=1;align=center;verticalAlign=middle;resizable=0;points=[];autosize=1;strokeColor=none;fillColor=none;" parent="1" vertex="1">
                    <mxGeometry x="1055" y="105" width="170" height="30" as="geometry"/>
                </mxCell>
                <mxCell id="24" value="IT部門 === VPC" style="whiteSpace=wrap;html=1;verticalAlign=top;" parent="1" vertex="1">
                    <mxGeometry x="1580" y="410" width="490" height="300" as="geometry"/>
                </mxCell>
                <mxCell id="25" value="開発部門" style="whiteSpace=wrap;html=1;" parent="1" vertex="1">
                    <mxGeometry x="1610" y="510" width="120" height="60" as="geometry"/>
                </mxCell>
                <mxCell id="26" value="インフラ部門" style="whiteSpace=wrap;html=1;" parent="1" vertex="1">
                    <mxGeometry x="1760" y="510" width="120" height="60" as="geometry"/>
                </mxCell>
                <mxCell id="27" value="セキュリティ部門" style="whiteSpace=wrap;html=1;" parent="1" vertex="1">
                    <mxGeometry x="1910" y="510" width="120" height="60" as="geometry"/>
                </mxCell>
                <mxCell id="29" value="サブネット" style="rounded=0;whiteSpace=wrap;html=1;dashed=1;dashPattern=8 8;fillColor=none;align=center;verticalAlign=top;" parent="1" vertex="1">
                    <mxGeometry x="1600" y="480" width="450" height="120" as="geometry"/>
                </mxCell>
            </root>
        </mxGraphModel>
    </diagram>
</mxfile>